<?xml version="1.0" encoding="utf-8"?>
<!-- Generator: Adobe Illustrator 28.3.0, SVG Export Plug-In . SVG Version: 6.00 Build 0)  -->
<svg version="1.1" id="Layer_1" xmlns="http://www.w3.org/2000/svg" xmlns:xlink="http://www.w3.org/1999/xlink" x="0px" y="0px"
	 viewBox="0 0 159.7 67" style="enable-background:new 0 0 159.7 67;" xml:space="preserve">
<style type="text/css">
	.st0{stroke:#000000;stroke-miterlimit:10;}
	.st1{fill:none;stroke:#FFFFFF;stroke-miterlimit:10;}
	.st2{fill:#FFFFFF;}
</style>
<path class="st0" d="M55.7,60.9H25c-6.6,0-12-5.4-12-12V18.1c0-6.6,5.4-12,12-12h30.7c6.6,0,12,5.4,12,12v30.7
	C67.7,55.5,62.3,60.9,55.7,60.9z"/>
<path class="st1" d="M21,43"/>
<path class="st1" d="M23.2,44.7"/>
<path class="st1" d="M21,43.5"/>
<g>
	<path class="st2" d="M56.5,35.1c0,2.7-2.6,4-4.5,5.2c0,0-0.2-1.7-0.2-1.7c-0.2-1.3-1.7-2.3-2.9-3c0,0,0.5,0.1,0.5,0.1
		c-0.3,0-0.3,0-0.5-0.1c-4.4-2.2-9.5-2.6-14.4-2.7c-3.7,0-7.7,0.5-10.7,2.9c-0.9,0.7-1.6,1.9-1.4,2.7c0,0,0.1,2.2,0.1,2.2
		c-1.3-1.1-3.1-2.2-4-3.8c-3.2-6.6,12.3-8.2,16.4-8.7C40.1,27.8,55.6,28.2,56.5,35.1L56.5,35.1z M54.5,35.1c0-1.4-1.9-2.5-3.1-3.2
		C46.3,29.5,40.4,29,34.8,29c-5,0-12.5,0.6-15.5,5.1c-0.7,1.6,0.8,2.8,2.4,3.4c0,0-1.6,0.8-1.6,0.8c0.6-1.7,1.9-2.6,3-3.2
		c8.2-3.8,18-4.9,26.6-1.3c0,0-0.5-0.1-0.5-0.1c0,0,0.2,0,0.2,0s0.2,0.1,0.2,0.1c1.9,0.9,3.8,2.2,4.2,4.5c0,0-1.7-0.8-1.7-0.8
		C53.2,36.9,54.4,36.1,54.5,35.1L54.5,35.1z"/>
</g>
<g>
	<path class="st2" d="M58,43.4c-4,1.8-8.2,2.6-12.5,3c0,0,0-0.9,0-0.9c1.4,0.2,2.9,0.3,4,1.4c1.1,1.4,1,3.4,0.1,4.8
		c-4.4,5.8-17.2,5.9-23.1,2.2c-1.2-0.8-2.6-2.1-2.8-3.8c-0.1-1.2,0-2.2,0.8-3.2c1.2-1.1,2.7-1,4.1-1.1c0,0,0,0.3,0,0.3
		c-5-0.3-9.7-4-8.4-9.5c0,0,1.6,0.7,1.6,0.7c2.1,1.3,4.7,2,7.3,2.5c7.7,1.3,16.3,1.4,23.4-2.1c0,0,0.9-0.5,0.9-0.5l0.1,1
		c0.3,1.8-1.1,3.4-2.4,4.3c0,0-0.3-1.2-0.3-1.2c1.8,0.2,3.7-0.3,5.4-1.1c7.3-3.4,6-10.3-2.5-7.7c0,0-0.2,0.1-0.2,0.1
		c-0.8-0.6-1.8-1-2.7-1.5c2.3-1.4,4.9-2.4,7.6-2.6c4.1-0.4,8.6,2.3,7.1,6.9C64.4,39.3,61.2,41.8,58,43.4L58,43.4z M57.2,41.6
		c2.8-1.4,5.6-3.5,6.6-6.5c1.2-3.4-2.2-5.1-5.2-4.9c-2.2,0-4.3,0.6-6.4,1.5c0,0,0-0.9,0-0.9c0.6,0.3,1.2,0.6,1.7,1.1
		c0,0-0.4-0.1-0.4-0.1c1.9-0.6,4.1-0.8,6.1-0.1c2.3,0.8,2.9,3.5,1.7,5.5c-2.2,3.6-6.4,5.6-10.6,5.4c0,0-1.8-0.1-1.8-0.1l1.4-1.1
		c1-0.7,2-1.7,1.8-3c0,0,1.1,0.5,1.1,0.5c-8.3,4.5-24.2,4.8-32.6,0.4c0,0,1.8-0.8,1.8-0.8c0,0,0,0.1,0,0.1l0,0.3
		c-0.2,3.7,3.3,6.1,6.7,6.9c-0.8,0.5-1.8,0.9-2.5,1.4c-0.6,0.4-0.8,0.6-0.7,1.4c0,1.4,0.9,2.1,2.1,2.7c5.5,2.4,12.7,2.6,18.2,0.1
		c0.6-0.3,1.2-0.7,1.6-1.2c0.5-0.5,0.6-1.7,0.4-2.4c-0.6-0.8-1.9-1.1-2.9-1.6c0,0-2-0.3-2-0.3C47.8,44.7,52.9,43.6,57.2,41.6
		L57.2,41.6z"/>
</g>
<g>
	<path class="st2" d="M37.3,39.1c-3.1,0.9-5.1-3.5-4.8-6c0.3-1.7,1.5-2.8,2.6-3.6c1.8-1.3,4.4-2.3,4.4-4.7c-0.5-2.4-4.1-1.8-5.9-3.3
		c-1.2-0.9-1.8-2.1-2.3-3.3c0.8,1,1.7,2,2.7,2.6c2.3,1,6.4,0.2,7.1,3.7c0.3,1.7-0.5,3.3-1.6,4.3c-1.8,1.7-4.5,2.4-5.3,4.7
		c-0.3,0.8,0.1,2.1,0.5,3.2c0.4,1.1,1.2,2,2.4,2C37.2,38.7,37.3,39.1,37.3,39.1L37.3,39.1z"/>
</g>
<g>
	<path d="M73.3,20.4v-0.5c0-4.6,3-7.9,7.6-7.9c3.9,0,6.6,2.5,6.8,6.2h-3.3c-0.2-2.2-1.5-3.5-3.6-3.5c-2.6,0-4.1,2.1-4.1,5.1v0.5
		c0,3.1,1.5,5.1,4.1,5.1c2.1,0,3.4-1.4,3.5-3.6h3.3c-0.2,3.7-2.8,6.4-6.8,6.4C76.2,28.3,73.3,25,73.3,20.4z"/>
	<path d="M88.9,20.4v-0.5c0-4.6,2.9-7.9,7.6-7.9c4.7,0,7.6,3.3,7.6,7.9v0.5c0,4.6-2.9,7.9-7.6,7.9C91.8,28.3,88.9,25,88.9,20.4z
		 M100.8,20.4v-0.5c0-3.1-1.5-5.1-4.2-5.1s-4.2,2-4.2,5.1v0.5c0,3.1,1.5,5.1,4.2,5.1C99.3,25.5,100.8,23.5,100.8,20.4z"/>
	<path d="M106.1,28V12.3h10.7V15h-7.5v4h6.7v2.6h-6.7V28H106.1z"/>
	<path d="M118.5,28V12.3h10.7V15h-7.5v4h6.7v2.6h-6.7V28H118.5z"/>
	<path d="M131,28V12.3h11.2V15h-8v3.7h7.3v2.6h-7.3v4h8.2V28H131z"/>
	<path d="M144.4,28V12.3h11.2V15h-8v3.7h7.3v2.6h-7.3v4h8.2V28H144.4z"/>
	<path d="M73.8,54.4V38.8H77V45h6.8v-6.2h3.3v15.6h-3.3v-6.7H77v6.7H73.8z"/>
	<path d="M89,46.8v-0.5c0-4.6,2.9-7.9,7.6-7.9c4.7,0,7.6,3.3,7.6,7.9v0.5c0,4.6-2.9,7.9-7.6,7.9C91.9,54.7,89,51.4,89,46.8z
		 M100.9,46.8v-0.5c0-3.1-1.5-5.1-4.2-5.1s-4.2,2-4.2,5.1v0.5c0,3.1,1.5,5.1,4.2,5.1C99.3,51.9,100.9,49.9,100.9,46.8z"/>
	<path d="M106,48.3v-9.5h3.3v9.5c0,2.4,1,3.7,3.3,3.7c2.2,0,3.3-1.3,3.3-3.7v-9.5h3.3v9.5c0,4.1-2.2,6.4-6.6,6.4S106,52.4,106,48.3z
		"/>
	<path d="M120.7,49.3h3.2c0.2,1.9,1.5,2.8,3.5,2.8c1.8,0,2.9-0.7,2.9-1.9V50c0-1.2-0.8-1.7-3.9-2.3c-3.8-0.7-5.3-2.2-5.3-4.6V43
		c0-2.8,2.4-4.6,5.9-4.6c3.5,0,5.9,1.7,6.2,5h-3.2c-0.2-1.6-1.3-2.4-3-2.4c-1.8,0-2.6,0.8-2.6,1.9v0c0,1,0.5,1.6,3.5,2.1
		c3.7,0.6,5.6,2,5.6,4.6v0.1c0,2.9-2.5,4.8-6.2,4.8C123.3,54.7,120.9,52.7,120.7,49.3z"/>
	<path d="M135.4,54.4V38.8h11.2v2.7h-8v3.7h7.3v2.6h-7.3v4h8.2v2.7H135.4z"/>
</g>
<g>
	<path class="st2" d="M39.9,9.6c-1.3,0-2.1,1.2-2.4,2.4c-0.9,2.6-0.9,4.8,1.4,6.6c1,0.8,2.2,1.6,3.3,2.7c1.7,1.7,2.5,5,0.6,6.9
		c-1.6,1.7-4.4,1.2-6.1,2.2c-1.1,0.7-1.9,1.9-2.7,3c0.5-1.3,1.1-2.7,2.2-3.7c1.7-1.5,4-1.1,5.4-2.6c1.1-1.4,0.3-3.3-0.9-4.5
		c-0.9-0.9-2.1-1.5-3.2-2.5c-1.2-1-2.2-2.4-2.4-4.1c-0.2-2.5,1.6-7.6,4.8-6.7C40,9.2,39.9,9.6,39.9,9.6L39.9,9.6z"/>
</g>
</svg>
